<mxfile host="Electron" agent="Mozilla/5.0 (Windows NT 10.0; Win64; x64) AppleWebKit/537.36 (KHTML, like Gecko) draw.io/26.2.15 Chrome/134.0.6998.205 Electron/35.2.1 Safari/537.36" version="26.2.15">
  <diagram name="MCU" id="tpu8mZLlf67Ykk3WL6cz">
    <mxGraphModel dx="1426" dy="849" grid="1" gridSize="10" guides="1" tooltips="1" connect="1" arrows="1" fold="1" page="1" pageScale="1" pageWidth="827" pageHeight="1169" math="0" shadow="0">
      <root>
        <mxCell id="0" />
        <mxCell id="1" parent="0" />
        <mxCell id="I7qtnmDlwLhA2JCm0WGK-2" value="" style="group" parent="1" vertex="1" connectable="0">
          <mxGeometry x="40" y="200" width="120" height="40" as="geometry" />
        </mxCell>
        <mxCell id="mxyCtMY2i22N2XtF819D-1" value="" style="endArrow=classic;html=1;rounded=0;" parent="I7qtnmDlwLhA2JCm0WGK-2" edge="1">
          <mxGeometry width="50" height="50" relative="1" as="geometry">
            <mxPoint y="40" as="sourcePoint" />
            <mxPoint x="120" y="40" as="targetPoint" />
          </mxGeometry>
        </mxCell>
        <mxCell id="I7qtnmDlwLhA2JCm0WGK-1" value="lsu2dmem_req_i" style="text;html=1;align=center;verticalAlign=middle;whiteSpace=wrap;rounded=0;" parent="I7qtnmDlwLhA2JCm0WGK-2" vertex="1">
          <mxGeometry y="10" width="120" height="30" as="geometry" />
        </mxCell>
        <mxCell id="I7qtnmDlwLhA2JCm0WGK-3" value="" style="group" parent="1" vertex="1" connectable="0">
          <mxGeometry x="40" y="240" width="120" height="40" as="geometry" />
        </mxCell>
        <mxCell id="I7qtnmDlwLhA2JCm0WGK-4" value="" style="endArrow=classic;html=1;rounded=0;" parent="I7qtnmDlwLhA2JCm0WGK-3" edge="1">
          <mxGeometry width="50" height="50" relative="1" as="geometry">
            <mxPoint y="40" as="sourcePoint" />
            <mxPoint x="120" y="40" as="targetPoint" />
          </mxGeometry>
        </mxCell>
        <mxCell id="I7qtnmDlwLhA2JCm0WGK-5" value="lsu2dmem_cmd_i" style="text;html=1;align=center;verticalAlign=middle;whiteSpace=wrap;rounded=0;" parent="I7qtnmDlwLhA2JCm0WGK-3" vertex="1">
          <mxGeometry y="5" width="120" height="30" as="geometry" />
        </mxCell>
        <mxCell id="I7qtnmDlwLhA2JCm0WGK-6" value="" style="group" parent="1" vertex="1" connectable="0">
          <mxGeometry x="40" y="280" width="120" height="40" as="geometry" />
        </mxCell>
        <mxCell id="I7qtnmDlwLhA2JCm0WGK-7" value="" style="endArrow=classic;html=1;rounded=0;" parent="I7qtnmDlwLhA2JCm0WGK-6" edge="1">
          <mxGeometry width="50" height="50" relative="1" as="geometry">
            <mxPoint y="40" as="sourcePoint" />
            <mxPoint x="120" y="40" as="targetPoint" />
          </mxGeometry>
        </mxCell>
        <mxCell id="I7qtnmDlwLhA2JCm0WGK-8" value="lsu2dmem_width_i" style="text;html=1;align=center;verticalAlign=middle;whiteSpace=wrap;rounded=0;" parent="I7qtnmDlwLhA2JCm0WGK-6" vertex="1">
          <mxGeometry y="5" width="120" height="30" as="geometry" />
        </mxCell>
        <mxCell id="I7qtnmDlwLhA2JCm0WGK-9" value="" style="group" parent="1" vertex="1" connectable="0">
          <mxGeometry x="40" y="320" width="120" height="40" as="geometry" />
        </mxCell>
        <mxCell id="I7qtnmDlwLhA2JCm0WGK-10" value="" style="endArrow=classic;html=1;rounded=0;" parent="I7qtnmDlwLhA2JCm0WGK-9" edge="1">
          <mxGeometry width="50" height="50" relative="1" as="geometry">
            <mxPoint y="40" as="sourcePoint" />
            <mxPoint x="120" y="40" as="targetPoint" />
          </mxGeometry>
        </mxCell>
        <mxCell id="I7qtnmDlwLhA2JCm0WGK-11" value="lsu2dmem_addr_i" style="text;html=1;align=center;verticalAlign=middle;whiteSpace=wrap;rounded=0;" parent="I7qtnmDlwLhA2JCm0WGK-9" vertex="1">
          <mxGeometry y="5" width="120" height="30" as="geometry" />
        </mxCell>
        <mxCell id="I7qtnmDlwLhA2JCm0WGK-12" value="" style="group" parent="1" vertex="1" connectable="0">
          <mxGeometry x="40" y="360" width="120" height="40" as="geometry" />
        </mxCell>
        <mxCell id="I7qtnmDlwLhA2JCm0WGK-13" value="" style="endArrow=classic;html=1;rounded=0;" parent="I7qtnmDlwLhA2JCm0WGK-12" edge="1">
          <mxGeometry width="50" height="50" relative="1" as="geometry">
            <mxPoint y="40" as="sourcePoint" />
            <mxPoint x="120" y="40" as="targetPoint" />
          </mxGeometry>
        </mxCell>
        <mxCell id="I7qtnmDlwLhA2JCm0WGK-14" value="lsu2dmem_wdata_i" style="text;html=1;align=center;verticalAlign=middle;whiteSpace=wrap;rounded=0;" parent="I7qtnmDlwLhA2JCm0WGK-12" vertex="1">
          <mxGeometry y="5" width="120" height="30" as="geometry" />
        </mxCell>
        <mxCell id="I7qtnmDlwLhA2JCm0WGK-15" value="" style="group" parent="1" vertex="1" connectable="0">
          <mxGeometry x="40" y="440" width="120" height="40" as="geometry" />
        </mxCell>
        <mxCell id="I7qtnmDlwLhA2JCm0WGK-16" value="" style="endArrow=none;html=1;rounded=0;startArrow=classicThin;startFill=1;" parent="I7qtnmDlwLhA2JCm0WGK-15" edge="1">
          <mxGeometry width="50" height="50" relative="1" as="geometry">
            <mxPoint y="40" as="sourcePoint" />
            <mxPoint x="120" y="40" as="targetPoint" />
          </mxGeometry>
        </mxCell>
        <mxCell id="I7qtnmDlwLhA2JCm0WGK-17" value="dmem2lsu_req_ack_o" style="text;html=1;align=center;verticalAlign=middle;whiteSpace=wrap;rounded=0;" parent="I7qtnmDlwLhA2JCm0WGK-15" vertex="1">
          <mxGeometry y="5" width="120" height="30" as="geometry" />
        </mxCell>
        <mxCell id="I7qtnmDlwLhA2JCm0WGK-18" value="" style="group" parent="1" vertex="1" connectable="0">
          <mxGeometry x="40" y="480" width="120" height="75" as="geometry" />
        </mxCell>
        <mxCell id="I7qtnmDlwLhA2JCm0WGK-19" value="" style="endArrow=none;html=1;rounded=0;startArrow=classicThin;startFill=1;" parent="I7qtnmDlwLhA2JCm0WGK-18" edge="1">
          <mxGeometry width="50" height="50" relative="1" as="geometry">
            <mxPoint y="40" as="sourcePoint" />
            <mxPoint x="120" y="40" as="targetPoint" />
          </mxGeometry>
        </mxCell>
        <mxCell id="I7qtnmDlwLhA2JCm0WGK-20" value="dmem2lsu_rdata_o" style="text;html=1;align=center;verticalAlign=middle;whiteSpace=wrap;rounded=0;" parent="I7qtnmDlwLhA2JCm0WGK-18" vertex="1">
          <mxGeometry y="5" width="120" height="30" as="geometry" />
        </mxCell>
        <mxCell id="I7qtnmDlwLhA2JCm0WGK-21" value="" style="group" parent="I7qtnmDlwLhA2JCm0WGK-18" vertex="1" connectable="0">
          <mxGeometry y="40" width="120" height="40" as="geometry" />
        </mxCell>
        <mxCell id="I7qtnmDlwLhA2JCm0WGK-22" value="" style="endArrow=none;html=1;rounded=0;startArrow=classicThin;startFill=1;" parent="I7qtnmDlwLhA2JCm0WGK-21" edge="1">
          <mxGeometry width="50" height="50" relative="1" as="geometry">
            <mxPoint y="40" as="sourcePoint" />
            <mxPoint x="120" y="40" as="targetPoint" />
          </mxGeometry>
        </mxCell>
        <mxCell id="I7qtnmDlwLhA2JCm0WGK-23" value="dmem2lsu_resp_o" style="text;html=1;align=center;verticalAlign=middle;whiteSpace=wrap;rounded=0;" parent="I7qtnmDlwLhA2JCm0WGK-21" vertex="1">
          <mxGeometry y="5" width="120" height="30" as="geometry" />
        </mxCell>
        <mxCell id="I7qtnmDlwLhA2JCm0WGK-24" value="RAM" style="whiteSpace=wrap;html=1;aspect=fixed;" parent="1" vertex="1">
          <mxGeometry x="360" y="560" width="340" height="340" as="geometry" />
        </mxCell>
        <mxCell id="I7qtnmDlwLhA2JCm0WGK-39" value="" style="group" parent="1" vertex="1" connectable="0">
          <mxGeometry x="240" y="545" width="120" height="160" as="geometry" />
        </mxCell>
        <mxCell id="I7qtnmDlwLhA2JCm0WGK-25" value="" style="group" parent="I7qtnmDlwLhA2JCm0WGK-39" vertex="1" connectable="0">
          <mxGeometry width="120" height="80" as="geometry" />
        </mxCell>
        <mxCell id="I7qtnmDlwLhA2JCm0WGK-26" value="" style="endArrow=classic;html=1;rounded=0;" parent="I7qtnmDlwLhA2JCm0WGK-25" edge="1">
          <mxGeometry width="50" height="50" relative="1" as="geometry">
            <mxPoint y="40" as="sourcePoint" />
            <mxPoint x="120" y="40" as="targetPoint" />
          </mxGeometry>
        </mxCell>
        <mxCell id="I7qtnmDlwLhA2JCm0WGK-27" value="data_in_1_i" style="text;html=1;align=center;verticalAlign=middle;whiteSpace=wrap;rounded=0;" parent="I7qtnmDlwLhA2JCm0WGK-25" vertex="1">
          <mxGeometry y="10" width="120" height="30" as="geometry" />
        </mxCell>
        <mxCell id="I7qtnmDlwLhA2JCm0WGK-28" value="" style="group" parent="I7qtnmDlwLhA2JCm0WGK-25" vertex="1" connectable="0">
          <mxGeometry y="40" width="120" height="40" as="geometry" />
        </mxCell>
        <mxCell id="I7qtnmDlwLhA2JCm0WGK-29" value="" style="endArrow=classic;html=1;rounded=0;" parent="I7qtnmDlwLhA2JCm0WGK-28" edge="1">
          <mxGeometry width="50" height="50" relative="1" as="geometry">
            <mxPoint y="40" as="sourcePoint" />
            <mxPoint x="120" y="40" as="targetPoint" />
          </mxGeometry>
        </mxCell>
        <mxCell id="I7qtnmDlwLhA2JCm0WGK-30" value="addr_1_i" style="text;html=1;align=center;verticalAlign=middle;whiteSpace=wrap;rounded=0;" parent="I7qtnmDlwLhA2JCm0WGK-28" vertex="1">
          <mxGeometry y="10" width="120" height="30" as="geometry" />
        </mxCell>
        <mxCell id="I7qtnmDlwLhA2JCm0WGK-33" value="" style="group" parent="I7qtnmDlwLhA2JCm0WGK-39" vertex="1" connectable="0">
          <mxGeometry y="80" width="120" height="80" as="geometry" />
        </mxCell>
        <mxCell id="I7qtnmDlwLhA2JCm0WGK-34" value="" style="endArrow=classic;html=1;rounded=0;" parent="I7qtnmDlwLhA2JCm0WGK-33" edge="1">
          <mxGeometry width="50" height="50" relative="1" as="geometry">
            <mxPoint y="40" as="sourcePoint" />
            <mxPoint x="120" y="40" as="targetPoint" />
          </mxGeometry>
        </mxCell>
        <mxCell id="I7qtnmDlwLhA2JCm0WGK-35" value="write_1_i" style="text;html=1;align=center;verticalAlign=middle;whiteSpace=wrap;rounded=0;" parent="I7qtnmDlwLhA2JCm0WGK-33" vertex="1">
          <mxGeometry y="10" width="120" height="30" as="geometry" />
        </mxCell>
        <mxCell id="I7qtnmDlwLhA2JCm0WGK-36" value="" style="group" parent="I7qtnmDlwLhA2JCm0WGK-33" vertex="1" connectable="0">
          <mxGeometry y="40" width="120" height="40" as="geometry" />
        </mxCell>
        <mxCell id="I7qtnmDlwLhA2JCm0WGK-37" value="" style="endArrow=none;html=1;rounded=0;startArrow=classicThin;startFill=1;" parent="I7qtnmDlwLhA2JCm0WGK-36" edge="1">
          <mxGeometry width="50" height="50" relative="1" as="geometry">
            <mxPoint y="40" as="sourcePoint" />
            <mxPoint x="120" y="40" as="targetPoint" />
          </mxGeometry>
        </mxCell>
        <mxCell id="I7qtnmDlwLhA2JCm0WGK-38" value="data_out_1_o" style="text;html=1;align=center;verticalAlign=middle;whiteSpace=wrap;rounded=0;" parent="I7qtnmDlwLhA2JCm0WGK-36" vertex="1">
          <mxGeometry y="10" width="120" height="30" as="geometry" />
        </mxCell>
        <mxCell id="I7qtnmDlwLhA2JCm0WGK-53" value="" style="group" parent="1" vertex="1" connectable="0">
          <mxGeometry x="240" y="730" width="120" height="160" as="geometry" />
        </mxCell>
        <mxCell id="I7qtnmDlwLhA2JCm0WGK-54" value="" style="group" parent="I7qtnmDlwLhA2JCm0WGK-53" vertex="1" connectable="0">
          <mxGeometry width="120" height="80" as="geometry" />
        </mxCell>
        <mxCell id="I7qtnmDlwLhA2JCm0WGK-55" value="" style="endArrow=classic;html=1;rounded=0;" parent="I7qtnmDlwLhA2JCm0WGK-54" edge="1">
          <mxGeometry width="50" height="50" relative="1" as="geometry">
            <mxPoint y="40" as="sourcePoint" />
            <mxPoint x="120" y="40" as="targetPoint" />
          </mxGeometry>
        </mxCell>
        <mxCell id="I7qtnmDlwLhA2JCm0WGK-56" value="data_in_2_i" style="text;html=1;align=center;verticalAlign=middle;whiteSpace=wrap;rounded=0;" parent="I7qtnmDlwLhA2JCm0WGK-54" vertex="1">
          <mxGeometry y="10" width="120" height="30" as="geometry" />
        </mxCell>
        <mxCell id="I7qtnmDlwLhA2JCm0WGK-57" value="" style="group" parent="I7qtnmDlwLhA2JCm0WGK-54" vertex="1" connectable="0">
          <mxGeometry y="40" width="120" height="40" as="geometry" />
        </mxCell>
        <mxCell id="I7qtnmDlwLhA2JCm0WGK-58" value="" style="endArrow=classic;html=1;rounded=0;" parent="I7qtnmDlwLhA2JCm0WGK-57" edge="1">
          <mxGeometry width="50" height="50" relative="1" as="geometry">
            <mxPoint y="40" as="sourcePoint" />
            <mxPoint x="120" y="40" as="targetPoint" />
          </mxGeometry>
        </mxCell>
        <mxCell id="I7qtnmDlwLhA2JCm0WGK-59" value="addr_2_i" style="text;html=1;align=center;verticalAlign=middle;whiteSpace=wrap;rounded=0;" parent="I7qtnmDlwLhA2JCm0WGK-57" vertex="1">
          <mxGeometry y="10" width="120" height="30" as="geometry" />
        </mxCell>
        <mxCell id="I7qtnmDlwLhA2JCm0WGK-60" value="" style="group" parent="I7qtnmDlwLhA2JCm0WGK-53" vertex="1" connectable="0">
          <mxGeometry y="80" width="120" height="80" as="geometry" />
        </mxCell>
        <mxCell id="I7qtnmDlwLhA2JCm0WGK-61" value="" style="endArrow=classic;html=1;rounded=0;" parent="I7qtnmDlwLhA2JCm0WGK-60" edge="1">
          <mxGeometry width="50" height="50" relative="1" as="geometry">
            <mxPoint y="40" as="sourcePoint" />
            <mxPoint x="120" y="40" as="targetPoint" />
          </mxGeometry>
        </mxCell>
        <mxCell id="I7qtnmDlwLhA2JCm0WGK-62" value="write_2_i" style="text;html=1;align=center;verticalAlign=middle;whiteSpace=wrap;rounded=0;" parent="I7qtnmDlwLhA2JCm0WGK-60" vertex="1">
          <mxGeometry y="10" width="120" height="30" as="geometry" />
        </mxCell>
        <mxCell id="I7qtnmDlwLhA2JCm0WGK-63" value="" style="group" parent="I7qtnmDlwLhA2JCm0WGK-60" vertex="1" connectable="0">
          <mxGeometry y="40" width="120" height="40" as="geometry" />
        </mxCell>
        <mxCell id="I7qtnmDlwLhA2JCm0WGK-64" value="" style="endArrow=none;html=1;rounded=0;startArrow=classicThin;startFill=1;" parent="I7qtnmDlwLhA2JCm0WGK-63" edge="1">
          <mxGeometry width="50" height="50" relative="1" as="geometry">
            <mxPoint y="40" as="sourcePoint" />
            <mxPoint x="120" y="40" as="targetPoint" />
          </mxGeometry>
        </mxCell>
        <mxCell id="I7qtnmDlwLhA2JCm0WGK-65" value="data_out_2_o" style="text;html=1;align=center;verticalAlign=middle;whiteSpace=wrap;rounded=0;" parent="I7qtnmDlwLhA2JCm0WGK-63" vertex="1">
          <mxGeometry y="10" width="120" height="30" as="geometry" />
        </mxCell>
      </root>
    </mxGraphModel>
  </diagram>
</mxfile>
